<svg id="Capa_1" enable-background="new 0 0 512 512" viewBox="0 0 512 512" xmlns="http://www.w3.org/2000/svg"><g><g><path d="m371.239 0h-178.036c-14.892 0-27.007 12.115-27.007 27.008v206.503c-1.585 2.155-4.223 5.64-6.805 9.051-9.561 12.631-24.01 31.721-32.627 45.286-16.992 26.792-17.32 53.563-1.095 89.518.113.251.237.497.371.738 0 0 20.315 36.74 21.186 38.349 5.129 9.476 13.713 25.336 13.169 37.802-.006.145-.009.29-.009.436v29.565c0 15.298 12.446 27.744 27.744 27.744h90.364c15.298 0 27.744-12.446 27.744-27.744l-.085-25.904c.005-9.972 1.513-15.225 3.42-21.872 1.303-4.539 2.778-9.684 3.837-16.655.027-.18.05-.36.067-.542 1.479-15.354-2.511-30.181-6.735-45.878-2.397-8.908-4.954-18.414-6.785-28.929h71.283c14.892 0 27.007-12.115 27.007-27.008v-100.316c0-5.522-4.478-10-10-10s-10 4.478-10 10v100.315c0 3.864-3.144 7.008-7.007 7.008h-23.59v-304.475h23.589c3.863 0 7.007 3.144 7.007 7.008v100.316c0 5.522 4.478 10 10 10s10-4.478 10-10v-100.316c0-14.893-12.115-27.008-27.007-27.008zm-92.746 492h-90.364c-4.198 0-7.744-3.547-7.744-7.744v-29.362c.687-17.922-9.483-36.714-15.57-47.961-.833-1.538-21.084-38.165-21.084-38.165-13.298-29.633-13.311-49.342-.081-70.202 5.792-9.118 14.581-21.155 22.546-31.802v50.704c0 14.893 12.115 27.008 27.007 27.008h32.064v33.369c0 5.522 4.477 10 10 10s10-4.478 10-10v-105.305c0-9.022 7.339-16.362 16.361-16.362 4.389 0 8.53 1.734 11.66 4.883 3.075 3.093 4.755 7.149 4.729 11.419-.021 3.427-.073 25.976-.474 36.441-.355 9.256.037 17.866.888 25.903.02.583.796 6.507 1.149 8.827 2.016 13.237 5.114 24.793 7.848 34.95 3.872 14.39 7.221 26.831 6.165 38.497-.861 5.554-2.02 9.593-3.246 13.864-2.062 7.189-4.195 14.623-4.195 27.441 0 .035 0 .07.001.104l.084 25.747c0 4.199-3.546 7.746-7.744 7.746zm49.157-167.524h-29.996c-.257-4.724.343-48.476.363-51.877.057-9.636-3.688-18.741-10.546-25.639-6.912-6.953-16.091-10.782-25.844-10.782-20.049 0-36.361 16.312-36.361 36.362v51.936h-32.064c-3.864 0-7.007-3.144-7.007-7.008v-290.46c0-3.864 3.144-7.008 7.007-7.008h134.448z"/><path d="m388.246 162.252c-5.522 0-10 4.478-10 10v.028c0 5.522 4.478 9.986 10 9.986s10-4.492 10-10.015-4.478-9.999-10-9.999z"/></g></g></svg>